<svg aria-hidden="true" style="position: absolute; width: 0; height: 0; overflow: hidden;" version="1.1" xmlns="http://www.w3.org/2000/svg" xmlns:xlink="http://www.w3.org/1999/xlink">
<defs>
<symbol id="rss" viewBox="0 0 552.8 205.3">
            <style>
              .st1 {
                clip-path: url(#SVGID_2_);
              }
              .st2 {
                clip-path: url(#SVGID_4_);
              }
              .st3 {
                clip-path: url(#SVGID_6_);
              }
              .st4 {
                clip-path: url(#SVGID_8_);
              }
              .st5 {
                stroke-width: 4;
                stroke-miterlimit: 10;
              }
              .st6 {
                clip-path: url(#SVGID_8_);
              }
              .st6,
              .st7 {
                fill: none;

                stroke-width: 4;
                stroke-miterlimit: 10;
              }
              .st8,
              .st9 {
                clip-path: url(#SVGID_10_);
              }
              .st9 {
                fill: none;

                stroke-width: 4;
                stroke-miterlimit: 10;
              }
            </style>

            <path
              fill="currentColor"
              d="M285.4 68l26.3-1.7c.6 4.3 1.7 7.5 3.5 9.8 2.9 3.6 6.9 5.4 12.2 5.4 3.9 0 7-.9 9.1-2.8 2-1.5 3.2-3.9 3.2-6.4 0-2.4-1.1-4.7-3-6.2-2-1.8-6.7-3.6-14.1-5.2-12.1-2.7-20.8-6.3-25.9-10.9-5.1-4.3-8-10.6-7.8-17.3 0-4.6 1.4-9.2 4-13 3-4.3 7.1-7.7 12-9.6 5.3-2.3 12.7-3.5 22-3.5 11.4 0 20.1 2.1 26.1 6.4 6 4.2 9.6 11 10.7 20.3l-26 1.5c-.7-4-2.1-6.9-4.4-8.8s-5.3-2.8-9.2-2.8c-3.2 0-5.6.7-7.2 2-1.5 1.2-2.5 3-2.4 5 0 1.5.8 2.9 2 3.8 1.3 1.2 4.4 2.3 9.3 3.3 12.1 2.6 20.7 5.2 26 7.9 5.3 2.7 9.1 6 11.4 9.9 2.4 4 3.6 8.6 3.5 13.3 0 5.6-1.6 11.2-4.8 15.9-3.3 4.9-7.9 8.7-13.3 11-5.7 2.5-12.9 3.8-21.5 3.8-15.2 0-25.7-2.9-31.6-8.8S286.1 77 285.4 68zM6.3 97.6V8.2h46.1c8.5 0 15.1.7 19.6 2.2 4.4 1.4 8.3 4.3 10.9 8.2 2.9 4.3 4.3 9.3 4.2 14.5.3 8.8-4.2 17.2-11.9 21.6-3 1.7-6.3 2.9-9.7 3.5 2.5.7 5 1.9 7.2 3.3 1.7 1.4 3.1 3 4.4 4.7 1.5 1.7 2.8 3.6 3.9 5.6l13.4 25.9H63L48.2 70.2c-1.9-3.5-3.5-5.8-5-6.9-2-1.4-4.4-2.1-6.8-2.1H34v36.3H6.3zM34 44.4h11.7c2.5-.2 4.9-.6 7.3-1.2 1.8-.3 3.4-1.3 4.5-2.8 2.7-3.6 2.3-8.7-1-11.8-1.8-1.5-5.3-2.3-10.3-2.3H34v18.1zM0 174.2l26.3-1.7c.6 4.3 1.7 7.5 3.5 9.8 2.8 3.6 6.9 5.5 12.2 5.5 3.9 0 7-.9 9.1-2.8 2-1.6 3.2-3.9 3.2-6.4 0-2.4-1.1-4.7-3-6.2-2-1.8-6.7-3.6-14.2-5.2-12.1-2.7-20.8-6.3-25.9-10.9-5.1-4.3-8-10.6-7.8-17.3 0-4.6 1.4-9.2 4-13 3-4.3 7.1-7.7 12-9.6 5.3-2.3 12.7-3.5 22-3.5 11.4 0 20.1 2.1 26.1 6.4s9.5 11 10.6 20.3l-26 1.5c-.7-4-2.1-6.9-4.4-8.8-2.2-1.9-5.3-2.8-9.2-2.7-3.2 0-5.6.7-7.2 2.1-1.6 1.2-2.5 3-2.4 5 0 1.5.8 2.9 2 3.8 1.3 1.2 4.4 2.3 9.3 3.3 12.1 2.6 20.7 5.2 26 7.9 5.3 2.7 9.1 6 11.4 9.9 2.4 4 3.6 8.6 3.6 13.2 0 5.6-1.7 11.1-4.8 15.8-3.3 4.9-7.9 8.7-13.3 11-5.7 2.5-12.9 3.8-21.5 3.8-15.2 0-25.7-2.9-31.6-8.8-5.9-6-9.2-13.4-10-22.4z"
            />
            <path
              fill="currentColor"
              d="M133 167.2l24.2 7.3c-1.3 6.1-4 11.9-7.7 17-3.4 4.5-7.9 8-13 10.3-5.2 2.3-11.8 3.5-19.8 3.5-9.7 0-17.7-1.4-23.8-4.2-6.2-2.8-11.5-7.8-16-14.9-4.5-7.1-6.7-16.2-6.7-27.3 0-14.8 3.9-26.2 11.8-34.1s19-11.9 33.4-11.9c11.3 0 20.1 2.3 26.6 6.8 6.4 4.6 11.2 11.6 14.4 21l-24.4 5.4c-.6-2.1-1.5-4.2-2.7-6-1.5-2.1-3.4-3.7-5.7-4.9-2.3-1.2-4.9-1.7-7.5-1.7-6.3 0-11.1 2.5-14.4 7.6-2.5 3.7-3.8 9.6-3.8 17.6 0 9.9 1.5 16.7 4.5 20.4 3 3.7 7.2 5.5 12.7 5.5 5.3 0 9.3-1.5 12-4.4 2.7-3.1 4.7-7.4 5.9-13zm56.5-52.8h27.6v31.3h30.2v-31.3h27.8v89.4h-27.8v-36.2h-30.2v36.2h-27.6v-89.4z"
            />
            <path
              fill="currentColor"
              d="M271.3 159.1c0-14.6 4.1-26 12.2-34.1 8.1-8.1 19.5-12.2 34-12.2 14.9 0 26.3 4 34.4 12S364 144 364 158.4c0 10.5-1.8 19-5.3 25.7-3.4 6.6-8.7 12-15.2 15.6-6.7 3.7-15 5.6-24.9 5.6-10.1 0-18.4-1.6-25-4.8-6.8-3.4-12.4-8.7-16.1-15.2-4.1-7-6.2-15.7-6.2-26.2zm27.6.1c0 9 1.7 15.5 5 19.5 3.3 3.9 7.9 5.9 13.7 5.9 5.9 0 10.5-1.9 13.8-5.8s4.9-10.8 4.9-20.8c0-8.4-1.7-14.6-5.1-18.4-3.4-3.9-8-5.8-13.8-5.8-5.1-.2-10 2-13.4 5.9-3.4 3.9-5.1 10.4-5.1 19.5zm93.4-.1c0-14.6 4.1-26 12.2-34.1 8.1-8.1 19.5-12.2 34-12.2 14.9 0 26.4 4 34.4 12S485 144 485 158.4c0 10.5-1.8 19-5.3 25.7-3.4 6.6-8.7 12-15.2 15.6-6.7 3.7-15 5.6-24.9 5.6-10.1 0-18.4-1.6-25-4.8-6.8-3.4-12.4-8.7-16.1-15.2-4.1-7-6.2-15.7-6.2-26.2zm27.6.1c0 9 1.7 15.5 5 19.5 3.3 3.9 7.9 5.9 13.7 5.9 5.9 0 10.5-1.9 13.8-5.8 3.3-3.9 4.9-10.8 4.9-20.8 0-8.4-1.7-14.6-5.1-18.4-3.4-3.9-8-5.8-13.8-5.8-5.1-.2-10.1 2-13.4 5.9-3.4 3.9-5.1 10.4-5.1 19.5z"
            />
            <path
              fill="currentColor"
              d="M482.1 114.4h27.6v67.4h43.1v22H482v-89.4z"
            />
            <ellipse
              transform="rotate(-37.001 420.46 67.88)"
              class="st0"
              cx="420.5"
              cy="67.9"
              rx="63"
              ry="51.8"
            />
            <defs>
              <ellipse
                id="SVGID_1_"
                transform="rotate(-37.001 420.46 67.88)"
                cx="420.5"
                cy="67.9"
                rx="63"
                ry="51.8"
              />
            </defs>
            <clipPath id="SVGID_2_">
              <use xlink:href="#SVGID_1_" overflow="visible" />
            </clipPath>
            <g class="st1">
              <path
                transform="rotate(-37.001 420.82 68.353)"
                class="st0"
                d="M330.9-14.2h179.8v165.1H330.9z"
              />
              <g id="Layer_2_1_">
                <defs>
                  <path
                    id="SVGID_3_"
                    transform="rotate(-37.001 420.82 68.353)"
                    d="M330.9-14.2h179.8v165.1H330.9z"
                  />
                </defs>
                <clipPath id="SVGID_4_">
                  <use xlink:href="#SVGID_3_" overflow="visible" />
                </clipPath>
                <g id="Layer_1-2" class="st2">
                  <ellipse
                    transform="rotate(-37.001 420.46 67.88)"
                    class="st0"
                    cx="420.5"
                    cy="67.9"
                    rx="63"
                    ry="51.8"
                  />
                  <defs>
                    <ellipse
                      id="SVGID_5_"
                      transform="rotate(-37.001 420.46 67.88)"
                      cx="420.5"
                      cy="67.9"
                      rx="63"
                      ry="51.8"
                    />
                  </defs>
                  <clipPath id="SVGID_6_">
                    <use xlink:href="#SVGID_5_" overflow="visible" />
                  </clipPath>
                  <g class="st3">
                    <path
                      transform="rotate(-37 420.799 68.802)"
                      class="st0"
                      d="M357.8 17h125.9v103.7H357.8z"
                    />
                    <defs>
                      <path
                        id="SVGID_7_"
                        transform="rotate(-37 420.799 68.802)"
                        d="M357.8 17h125.9v103.7H357.8z"
                      />
                    </defs>
                    <clipPath id="SVGID_8_">
                      <use xlink:href="#SVGID_7_" overflow="visible" />
                    </clipPath>
                    <g class="st4">
                      <ellipse
                        transform="rotate(-37.001 420.46 67.88)"
                        class="st5"
                        cx="420.5"
                        cy="67.9"
                        rx="63"
                        ry="51.8"
                      />
                    </g>
                    <path
                      transform="rotate(-37 420.799 68.802)"
                      class="st6"
                      d="M357.8 17h125.9v103.7H357.8z"
                    />
                    <ellipse
                      transform="rotate(-37.001 420.46 67.88)"
                      class="st7"
                      cx="420.5"
                      cy="67.9"
                      rx="63"
                      ry="51.8"
                    />
                    <path
                      transform="rotate(-37 420.799 68.802)"
                      class="st0"
                      d="M357.8 17h125.9v103.7H357.8z"
                    />
                    <defs>
                      <path
                        id="SVGID_9_"
                        transform="rotate(-37 420.799 68.802)"
                        d="M357.8 17h125.9v103.7H357.8z"
                      />
                    </defs>
                    <clipPath id="SVGID_10_">
                      <use xlink:href="#SVGID_9_" overflow="visible" />
                    </clipPath>
                    <g class="st8">
                      <ellipse
                        transform="rotate(-37.001 420.46 67.88)"
                        class="st5"
                        cx="420.5"
                        cy="67.9"
                        rx="63"
                        ry="51.8"
                      />
                    </g>
                    <path
                      transform="rotate(-37 420.799 68.802)"
                      class="st9"
                      d="M357.8 17h125.9v103.7H357.8z"
                    />
                    <path
                      transform="rotate(-37.001 420.82 68.353)"
                      class="st7"
                      d="M330.9-14.2h179.8v165.1H330.9z"
                    />
                  </g>
                  <ellipse
                    transform="rotate(-37.001 420.46 67.88)"
                    class="st7"
                    cx="420.5"
                    cy="67.9"
                    rx="63"
                    ry="51.8"
                  />
                  <path
                    fill="var(--logoJS)"
                    d="M392.4 61.3l10-7 12.3 17.5c2.1 2.8 3.7 5.8 4.9 9.1.7 2.5.5 5.2-.5 7.6-1.3 3-3.4 5.5-6.2 7.3-3.3 2.3-6.1 3.6-8.5 4-2.3.4-4.7 0-6.9-1-2.4-1.2-4.5-2.9-6.1-5.1l8.6-8c.7 1.1 1.6 2.1 2.6 2.9.7.5 1.5.8 2.4.8.7 0 1.4-.3 1.9-.7 1-.6 1.7-1.8 1.6-3-.3-1.7-1-3.4-2.1-4.7l-14-19.7zm30 11.1l9.1-7.2c1 1.2 2.3 2.1 3.7 2.6 2 .6 4.1.2 5.8-1.1 1.2-.8 2.2-1.9 2.6-3.3.6-1.8-.4-3.8-2.2-4.4-.3-.1-.6-.2-.9-.2-1.2-.1-3.3.4-6.4 1.7-5.1 2.1-9.1 2.9-12.1 2.6-2.9-.3-5.6-1.8-7.2-4.3-1.2-1.7-1.8-3.7-1.9-5.7 0-2.3.6-4.6 1.9-6.5 1.9-2.7 4.2-5 7-6.8 4.2-2.9 7.9-4.3 11.1-4.3 3.2 0 6.2 1.5 9 4.6l-9 7.1c-1.8-2.3-5.2-2.8-7.5-1l-.3.3c-1 .6-1.7 1.5-2.1 2.6-.3.8-.1 1.7.4 2.4.4.5 1 .9 1.7.9.8.1 2.2-.3 4.2-1.2 5-2.1 8.8-3.3 11.4-3.7 2.2-.4 4.5-.2 6.6.7 1.9.8 3.5 2.2 4.6 3.9 1.4 2 2.2 4.4 2.3 6.9.1 2.6-.6 5.1-2 7.3-1.8 2.7-4.1 5-6.8 6.8-5.5 3.8-10 5.4-13.6 4.8-3.9-.6-7.1-2.6-9.4-5.5z"
                  />
                </g>
              </g>
            </g>
          </symbol>

<symbol id="telegram" viewBox="0 0 32 32">
<path d="M16 0c-8.838 0-16 7.162-16 16s7.162 16 16 16 16-7.163 16-16-7.163-16-16-16zM23.863 10.969l-2.625 12.369c-0.181 0.881-0.712 1.087-1.45 0.681l-4-2.956-1.919 1.869c-0.225 0.219-0.4 0.4-0.8 0.4-0.519 0-0.431-0.194-0.606-0.688l-1.363-4.475-3.956-1.231c-0.856-0.262-0.862-0.85 0.194-1.269l15.412-5.95c0.7-0.319 1.381 0.169 1.113 1.25z"/>
</symbol>
<symbol id="apple" viewBox="0 0 36 36">
  <path d="M26.7073 18.6307C26.6704 14.6324 30.065 12.6872 30.2203 12.5966C28.2977 9.86366 25.3178 9.49026 24.2707 9.46048C21.7679 9.20369 19.3403 10.9206 18.0654 10.9206C16.765 10.9206 14.8017 9.48529 12.6858 9.52747C9.96293 9.56841 7.41566 11.1055 6.0186 13.4923C3.13542 18.359 5.28572 25.5108 8.04802 29.4446C9.42981 31.3712 11.0444 33.5223 13.1578 33.4466C15.2254 33.3635 15.9978 32.1614 18.4929 32.1614C20.9651 32.1614 21.6903 33.4466 23.8457 33.3983C26.0647 33.3635 27.4618 31.463 28.7952 29.519C30.392 27.3108 31.0333 25.1362 31.0588 25.0245C31.0066 25.0071 26.7493 23.4229 26.7073 18.6307Z" fill="#403F3D"/>
  <path d="M22.6357 6.87268C23.7477 5.51675 24.5086 3.67205 24.2974 1.80005C22.6879 1.86952 20.675 2.88554 19.5159 4.21169C18.4903 5.38029 17.5742 7.29571 17.8109 9.097C19.6189 9.2285 21.4753 8.20752 22.6357 6.87268Z" fill="#403F3D"/>

</symbol>
<symbol id="google" viewBox="0 0 36 36">
  <path d="M3.7558 3.20297C3.39335 3.57289 3.18359 4.14884 3.18359 4.89471V31.4994C3.18359 32.2453 3.39335 32.8212 3.7558 33.1911L3.84525 33.2723L19.1359 18.37V18.0181L3.84525 3.11575L3.7558 3.20297Z" fill="#403F3D"/>
  <path d="M26.0776 23.34L20.9863 18.37V18.0181L26.0837 13.0482L26.1979 13.1128L32.2345 16.4617C33.9573 17.4121 33.9573 18.976 32.2345 19.9324L26.1979 23.2753L26.0776 23.34Z" fill="#403F3D"/>
  <path d="M25.2733 24.2007L20.0617 19.1195L4.68164 34.1166C5.25384 34.7031 6.18695 34.7737 7.24807 34.1873L25.2733 24.2007Z" fill="#403F3D"/>
  <path d="M25.2733 12.1876L7.24807 2.20103C6.18695 1.62058 5.25384 1.69125 4.68164 2.27772L20.0617 17.2688L25.2733 12.1876Z" fill="#403F3D"/>
</symbol>
<symbol id="cup" viewBox="0 0 20 20"  fill="none">

  <path d="M14.167 9.76667V11.6667C14.167 14.8883 11.5553 17.5 8.33366 17.5C5.112 17.5 2.50033 14.8883 2.50033 11.6667V9.76667C2.50033 9.4353 2.76896 9.16667 3.10033 9.16667H13.567C13.8984 9.16667 14.167 9.4353 14.167 9.76667Z" stroke-width="1.5" stroke-linecap="round" stroke-linejoin="round"/>
  <path d="M10.0003 7.50008C10.0003 6.66675 10.5956 5.83341 11.786 5.83341V5.83341C13.101 5.83341 14.167 4.76743 14.167 3.45246V2.91675" stroke-width="1.5" stroke-linecap="round" stroke-linejoin="round"/>
  <path d="M6.66634 7.5V7.08333C6.66634 5.70262 7.78563 4.58333 9.16634 4.58333V4.58333C10.0868 4.58333 10.833 3.83714 10.833 2.91667V2.5" stroke-width="1.5" stroke-linecap="round" stroke-linejoin="round"/>
  <path d="M13.333 9.16675H15.4163C16.5669 9.16675 17.4997 10.0995 17.4997 11.2501C17.4997 12.4007 16.5669 13.3334 15.4163 13.3334H14.1663"  stroke-width="1.5" stroke-linecap="round" stroke-linejoin="round"/>

</symbol>
<symbol id="instagram" viewBox="0 0 24 24">
  <path d="M12 16C14.2091 16 16 14.2091 16 12C16 9.79086 14.2091 8 12 8C9.79086 8 8 9.79086 8 12C8 14.2091 9.79086 16 12 16Z" stroke-linecap="round" stroke-linejoin="round"/>
  <path d="M3 16V8C3 5.23858 5.23858 3 8 3H16C18.7614 3 21 5.23858 21 8V16C21 18.7614 18.7614 21 16 21H8C5.23858 21 3 18.7614 3 16Z" />
  <path d="M17.5 6.51L17.51 6.49889" stroke-linecap="round" stroke-linejoin="round"/>
</symbol>
<symbol id="facebook" viewBox="0 0 24 24">
<path d="M17 2H14C12.6739 2 11.4021 2.52678 10.4645 3.46447C9.52678 4.40215 9 5.67392 9 7V10H6V14H9V22H13V14H16L17 10H13V7C13 6.73478 13.1054 6.48043 13.2929 6.29289C13.4804 6.10536 13.7348 6 14 6H17V2Z" stroke-linecap="round" stroke-linejoin="round"/>
</symbol>
<symbol id="twitter" viewBox="0 0 24 24">
<path d="M23 3.01006C23 3.01006 20.9821 4.20217 19.86 4.54006C19.2577 3.84757 18.4573 3.35675 17.567 3.13398C16.6767 2.91122 15.7395 2.96725 14.8821 3.29451C14.0247 3.62177 13.2884 4.20446 12.773 4.96377C12.2575 5.72309 11.9877 6.62239 12 7.54006V8.54006C10.2426 8.58562 8.50127 8.19587 6.93101 7.4055C5.36074 6.61513 4.01032 5.44869 3 4.01006C3 4.01006 -1 13.0101 8 17.0101C5.94053 18.408 3.48716 19.109 1 19.0101C10 24.0101 21 19.0101 21 7.51006C20.9991 7.23151 20.9723 6.95365 20.92 6.68006C21.9406 5.67355 23 3.01006 23 3.01006Z" stroke-linecap="round" stroke-linejoin="round"/></path>
</symbol>
<symbol id="linkedin" viewBox="0 0 32 32">
<path d="M29 0h-26c-1.65 0-3 1.35-3 3v26c0 1.65 1.35 3 3 3h26c1.65 0 3-1.35 3-3v-26c0-1.65-1.35-3-3-3zM12 26h-4v-14h4v14zM10 10c-1.106 0-2-0.894-2-2s0.894-2 2-2c1.106 0 2 0.894 2 2s-0.894 2-2 2zM26 26h-4v-8c0-1.106-0.894-2-2-2s-2 0.894-2 2v8h-4v-14h4v2.481c0.825-1.131 2.087-2.481 3.5-2.481 2.488 0 4.5 2.238 4.5 5v9z"></path>
</symbol>
<symbol id="github" viewBox="0 0 28 28">
<path d="M12 2c6.625 0 12 5.375 12 12 0 5.297-3.437 9.797-8.203 11.391-0.609 0.109-0.828-0.266-0.828-0.578 0-0.391 0.016-1.687 0.016-3.297 0-1.125-0.375-1.844-0.812-2.219 2.672-0.297 5.484-1.313 5.484-5.922 0-1.313-0.469-2.375-1.234-3.219 0.125-0.313 0.531-1.531-0.125-3.187-1-0.313-3.297 1.234-3.297 1.234-0.953-0.266-1.984-0.406-3-0.406s-2.047 0.141-3 0.406c0 0-2.297-1.547-3.297-1.234-0.656 1.656-0.25 2.875-0.125 3.187-0.766 0.844-1.234 1.906-1.234 3.219 0 4.594 2.797 5.625 5.469 5.922-0.344 0.313-0.656 0.844-0.766 1.609-0.688 0.313-2.438 0.844-3.484-1-0.656-1.141-1.844-1.234-1.844-1.234-1.172-0.016-0.078 0.734-0.078 0.734 0.781 0.359 1.328 1.75 1.328 1.75 0.703 2.141 4.047 1.422 4.047 1.422 0 1 0.016 1.937 0.016 2.234 0 0.313-0.219 0.688-0.828 0.578-4.766-1.594-8.203-6.094-8.203-11.391 0-6.625 5.375-12 12-12zM4.547 19.234c0.031-0.063-0.016-0.141-0.109-0.187-0.094-0.031-0.172-0.016-0.203 0.031-0.031 0.063 0.016 0.141 0.109 0.187 0.078 0.047 0.172 0.031 0.203-0.031zM5.031 19.766c0.063-0.047 0.047-0.156-0.031-0.25-0.078-0.078-0.187-0.109-0.25-0.047-0.063 0.047-0.047 0.156 0.031 0.25 0.078 0.078 0.187 0.109 0.25 0.047zM5.5 20.469c0.078-0.063 0.078-0.187 0-0.297-0.063-0.109-0.187-0.156-0.266-0.094-0.078 0.047-0.078 0.172 0 0.281s0.203 0.156 0.266 0.109zM6.156 21.125c0.063-0.063 0.031-0.203-0.063-0.297-0.109-0.109-0.25-0.125-0.313-0.047-0.078 0.063-0.047 0.203 0.063 0.297 0.109 0.109 0.25 0.125 0.313 0.047zM7.047 21.516c0.031-0.094-0.063-0.203-0.203-0.25-0.125-0.031-0.266 0.016-0.297 0.109s0.063 0.203 0.203 0.234c0.125 0.047 0.266 0 0.297-0.094zM8.031 21.594c0-0.109-0.125-0.187-0.266-0.172-0.141 0-0.25 0.078-0.25 0.172 0 0.109 0.109 0.187 0.266 0.172 0.141 0 0.25-0.078 0.25-0.172zM8.937 21.438c-0.016-0.094-0.141-0.156-0.281-0.141-0.141 0.031-0.234 0.125-0.219 0.234 0.016 0.094 0.141 0.156 0.281 0.125s0.234-0.125 0.219-0.219z"></path>
</symbol>
</defs>
</svg>