<svg aria-hidden="true" style="position: absolute; width: 0; height: 0; overflow: hidden;" version="1.1" xmlns="http://www.w3.org/2000/svg" xmlns:xlink="http://www.w3.org/1999/xlink">
<defs>
<symbol id="cross" viewBox="0 0 19 19"
            ><path d="M2 16.8507L17 2.00003" stroke-width="3" />
            <path d="M2 2.14926L17 17" stroke-width="3" />
            </symbol>

<symbol id="telegram" viewBox="0 0 32 32">
<path d="M16 0c-8.838 0-16 7.162-16 16s7.162 16 16 16 16-7.163 16-16-7.163-16-16-16zM23.863 10.969l-2.625 12.369c-0.181 0.881-0.712 1.087-1.45 0.681l-4-2.956-1.919 1.869c-0.225 0.219-0.4 0.4-0.8 0.4-0.519 0-0.431-0.194-0.606-0.688l-1.363-4.475-3.956-1.231c-0.856-0.262-0.862-0.85 0.194-1.269l15.412-5.95c0.7-0.319 1.381 0.169 1.113 1.25z"></path>
</symbol>

<symbol id="sun" viewBox="0 0 24 24">
<path d="M15 12C15 13.6569 13.6569 15 12 15C10.3432 15 9.00004 13.6569 9.00004 12C9.00004 10.3432 10.3432 9.00004 12 9.00004C13.6569 9.00004 15 10.3432 15 12Z" stroke="#000000" stroke-width="2" stroke-linecap="round" stroke-linejoin="round"/>
<path d="M7.64338 5.18899L7.56701 6.10541C7.52707 6.58478 7.50709 6.82447 7.40373 7.01167C7.31261 7.1767 7.1767 7.31261 7.01167 7.40373C6.82447 7.50709 6.58477 7.52707 6.10541 7.56701L5.18898 7.64338C4.16259 7.72892 3.6494 7.77168 3.39642 8.00615C3.17627 8.21018 3.05941 8.50232 3.07812 8.8019C3.09961 9.14615 3.44174 9.53105 4.126 10.3008L4.69153 10.9371C5.02586 11.3132 5.19302 11.5012 5.2565 11.7135C5.31243 11.9004 5.31243 12.0997 5.2565 12.2866C5.19302 12.4988 5.02586 12.6869 4.69153 13.063L4.126 13.6992C3.44174 14.469 3.09961 14.8539 3.07812 15.1982C3.05941 15.4978 3.17627 15.7899 3.39642 15.9939C3.6494 16.2284 4.16259 16.2712 5.18899 16.3567L6.10541 16.4331C6.58478 16.473 6.82446 16.493 7.01167 16.5964C7.1767 16.6875 7.31261 16.8234 7.40373 16.9884C7.50709 17.1756 7.52707 17.4153 7.56701 17.8947L7.64338 18.8111C7.72892 19.8375 7.77168 20.3507 8.00615 20.6037C8.21018 20.8238 8.50232 20.9407 8.8019 20.922C9.14615 20.9005 9.53105 20.5583 10.3008 19.8741L10.9371 19.3085C11.3132 18.9742 11.5012 18.8071 11.7135 18.7436C11.9004 18.6876 12.0997 18.6876 12.2866 18.7436C12.4988 18.8071 12.6869 18.9742 13.063 19.3085L13.6992 19.8741C14.469 20.5583 14.8539 20.9005 15.1982 20.922C15.4978 20.9407 15.7899 20.8238 15.9939 20.6037C16.2284 20.3507 16.2712 19.8375 16.3567 18.8111L16.4331 17.8947C16.473 17.4153 16.493 17.1756 16.5964 16.9884C16.6875 16.8234 16.8234 16.6875 16.9884 16.5964C17.1756 16.493 17.4153 16.473 17.8947 16.4331L18.8111 16.3567C19.8375 16.2712 20.3507 16.2284 20.6037 15.9939C20.8238 15.7899 20.9407 15.4978 20.922 15.1982C20.9005 14.8539 20.5583 14.469 19.8741 13.6992L19.3085 13.063C18.9742 12.6869 18.8071 12.4988 18.7436 12.2866C18.6876 12.0997 18.6876 11.9004 18.7436 11.7135C18.8071 11.5012 18.9742 11.3132 19.3085 10.9371L19.8741 10.3008C20.5583 9.53105 20.9005 9.14615 20.922 8.8019C20.9407 8.50232 20.8238 8.21018 20.6037 8.00615C20.3507 7.77168 19.8375 7.72892 18.8111 7.64338L17.8947 7.56701C17.4153 7.52707 17.1756 7.50709 16.9884 7.40373C16.8234 7.31261 16.6875 7.1767 16.5964 7.01167C16.493 6.82446 16.473 6.58478 16.4331 6.10541L16.3567 5.18898C16.2712 4.16259 16.2284 3.6494 15.9939 3.39642C15.7899 3.17627 15.4978 3.05941 15.1982 3.07812C14.8539 3.09961 14.469 3.44174 13.6992 4.126L13.063 4.69153C12.6869 5.02586 12.4988 5.19302 12.2866 5.2565C12.0997 5.31243 11.9004 5.31243 11.7135 5.2565C11.5012 5.19302 11.3132 5.02586 10.9371 4.69153L10.3008 4.126C9.53105 3.44174 9.14615 3.09961 8.8019 3.07812C8.50232 3.05941 8.21018 3.17627 8.00615 3.39642C7.77168 3.6494 7.72892 4.16259 7.64338 5.18899Z" stroke="#000000" stroke-width="2" stroke-linecap="round" stroke-linejoin="round"/></path>
</symbol>

<symbol id="moon" viewBox="0 0 24 24">
<path d="M3.32031 11.6835C3.32031 16.6541 7.34975 20.6835 12.3203 20.6835C16.1075 20.6835 19.3483 18.3443 20.6768 15.032C19.6402 15.4486 18.5059 15.6834 17.3203 15.6834C12.3497 15.6834 8.32031 11.654 8.32031 6.68342C8.32031 5.50338 8.55165 4.36259 8.96453 3.32996C5.65605 4.66028 3.32031 7.89912 3.32031 11.6835Z" stroke="#000000" stroke-width="2" stroke-linecap="round" stroke-linejoin="round"/></path>
</symbol>
<symbol id="arrow" viewBox="0 0 16 16">
<path d="M2 4H0l3-4 3 4H4v12H2V4zm12 8h2l-3 4-3-4h2V0h2v12z" fill-rule="evenodd"/>
</symbol>
<symbol id="loop" viewBox="0 0 16 15">
<path d="M13.901 2.599c-1.463-1.597-3.565-2.599-5.901-2.599-4.418 0-8 3.582-8 8h1.5c0-3.59 2.91-6.5 6.5-6.5 1.922 0 3.649 0.835 4.839 2.161l-2.339 2.339h5.5v-5.5l-2.099 2.099z"></path>
<path d="M14.5 8c0 3.59-2.91 6.5-6.5 6.5-1.922 0-3.649-0.835-4.839-2.161l2.339-2.339h-5.5v5.5l2.099-2.099c1.463 1.597 3.565 2.599 5.901 2.599 4.418 0 8-3.582 8-8h-1.5z"></path>
</symbol>
<symbol id="table" viewBox="0 0 512 512">
<g id="SVGRepo_bgCarrier" stroke-width="0"></g>
  <g
    id="SVGRepo_tracerCarrier"
    stroke-linecap="round"
    stroke-linejoin="round"
  ></g>
  <g id="SVGRepo_iconCarrier">
    <rect
      y="22.261"
      style="fill:var(--bgColor)"
      width="512"
      height="467.478"
    ></rect>
    <rect y="22.261" style="fill:var(--bgColor);" width="512" height="133.565"></rect>
    <path d="M0,22.261v467.478h512V22.261H0z M33.391,155.826h122.435v77.913H33.391V155.826z M189.217,233.739v-77.913h133.565v77.913 H189.217z M322.783,267.13v77.913H189.217V267.13H322.783z M33.391,267.13h122.435v77.913H33.391V267.13z M33.391,456.348v-77.913 h122.435v77.913H33.391z M189.217,456.348v-77.913h133.565v77.913H189.217z M478.609,456.348H356.174v-77.913h122.435V456.348z M478.609,345.043H356.174V267.13h122.435V345.043z M478.609,233.739H356.174v-77.913h122.435V233.739z M478.609,122.435H33.391 V55.652h445.217V122.435z"></path>
  </g>
</symbol>
<symbol id="linkedin" viewBox="0 0 32 32">
<path d="M29 0h-26c-1.65 0-3 1.35-3 3v26c0 1.65 1.35 3 3 3h26c1.65 0 3-1.35 3-3v-26c0-1.65-1.35-3-3-3zM12 26h-4v-14h4v14zM10 10c-1.106 0-2-0.894-2-2s0.894-2 2-2c1.106 0 2 0.894 2 2s-0.894 2-2 2zM26 26h-4v-8c0-1.106-0.894-2-2-2s-2 0.894-2 2v8h-4v-14h4v2.481c0.825-1.131 2.087-2.481 3.5-2.481 2.488 0 4.5 2.238 4.5 5v9z"></path>
</symbol>
<symbol id="github" viewBox="0 0 28 28">
<path d="M12 2c6.625 0 12 5.375 12 12 0 5.297-3.437 9.797-8.203 11.391-0.609 0.109-0.828-0.266-0.828-0.578 0-0.391 0.016-1.687 0.016-3.297 0-1.125-0.375-1.844-0.812-2.219 2.672-0.297 5.484-1.313 5.484-5.922 0-1.313-0.469-2.375-1.234-3.219 0.125-0.313 0.531-1.531-0.125-3.187-1-0.313-3.297 1.234-3.297 1.234-0.953-0.266-1.984-0.406-3-0.406s-2.047 0.141-3 0.406c0 0-2.297-1.547-3.297-1.234-0.656 1.656-0.25 2.875-0.125 3.187-0.766 0.844-1.234 1.906-1.234 3.219 0 4.594 2.797 5.625 5.469 5.922-0.344 0.313-0.656 0.844-0.766 1.609-0.688 0.313-2.438 0.844-3.484-1-0.656-1.141-1.844-1.234-1.844-1.234-1.172-0.016-0.078 0.734-0.078 0.734 0.781 0.359 1.328 1.75 1.328 1.75 0.703 2.141 4.047 1.422 4.047 1.422 0 1 0.016 1.937 0.016 2.234 0 0.313-0.219 0.688-0.828 0.578-4.766-1.594-8.203-6.094-8.203-11.391 0-6.625 5.375-12 12-12zM4.547 19.234c0.031-0.063-0.016-0.141-0.109-0.187-0.094-0.031-0.172-0.016-0.203 0.031-0.031 0.063 0.016 0.141 0.109 0.187 0.078 0.047 0.172 0.031 0.203-0.031zM5.031 19.766c0.063-0.047 0.047-0.156-0.031-0.25-0.078-0.078-0.187-0.109-0.25-0.047-0.063 0.047-0.047 0.156 0.031 0.25 0.078 0.078 0.187 0.109 0.25 0.047zM5.5 20.469c0.078-0.063 0.078-0.187 0-0.297-0.063-0.109-0.187-0.156-0.266-0.094-0.078 0.047-0.078 0.172 0 0.281s0.203 0.156 0.266 0.109zM6.156 21.125c0.063-0.063 0.031-0.203-0.063-0.297-0.109-0.109-0.25-0.125-0.313-0.047-0.078 0.063-0.047 0.203 0.063 0.297 0.109 0.109 0.25 0.125 0.313 0.047zM7.047 21.516c0.031-0.094-0.063-0.203-0.203-0.25-0.125-0.031-0.266 0.016-0.297 0.109s0.063 0.203 0.203 0.234c0.125 0.047 0.266 0 0.297-0.094zM8.031 21.594c0-0.109-0.125-0.187-0.266-0.172-0.141 0-0.25 0.078-0.25 0.172 0 0.109 0.109 0.187 0.266 0.172 0.141 0 0.25-0.078 0.25-0.172zM8.937 21.438c-0.016-0.094-0.141-0.156-0.281-0.141-0.141 0.031-0.234 0.125-0.219 0.234 0.016 0.094 0.141 0.156 0.281 0.125s0.234-0.125 0.219-0.219z"></path>
</symbol>
</defs>
</svg>